<?xml version="1.0" encoding="UTF-8"?>
<svg width="256" height="256" version="1.1" viewBox="0 0 67.733 67.733" xmlns="http://www.w3.org/2000/svg">
<g fill="#fff">
<g transform="matrix(1.0485,0,0,1.0465,-1.6432,-1.5754)">
<path d="m8.7695 26.624h50.194v14.486h-50.194z" color="#000000" stroke-width=".60508" style="-inkscape-stroke:none"/>
<path d="m8.4668 26.32v15.092h50.799v-15.092zm0.60547 0.60547h49.59v13.881h-49.59z" color="#000000" style="-inkscape-stroke:none"/>
</g>
<g transform="matrix(.71046 0 0 .71046 -4.5502 9.9862)">
<g transform="rotate(-45)">
<path d="m-18.961 28.573h46.756v13.003h-46.756z" color="#000000" stroke-width=".55329" style="-inkscape-stroke:none"/>
<path d="m-19.238 28.297v13.557h47.309v-13.557zm0.55469 0.55273h46.201v12.449h-46.201z" color="#000000" style="-inkscape-stroke:none"/>
</g>
<g transform="matrix(-.70711 -.70711 -.70711 .70711 0 0)">
<path d="m-75.329 5.958h46.756v13.003h-46.756z" color="#000000" stroke-width=".55329" style="-inkscape-stroke:none"/>
<path d="m-75.605 5.6816v13.557h47.309v-13.557zm0.55274 0.55273h46.203v12.449h-46.203z" color="#000000" style="-inkscape-stroke:none"/>
</g>
</g>
<g transform="matrix(-.71046 0 0 .71046 72.283 9.9862)">
<g transform="rotate(-45)">
<path d="m-18.961 28.573h46.756v13.003h-46.756z" color="#000000" stroke-width=".55329" style="-inkscape-stroke:none"/>
<path d="m-19.238 28.297v13.557h47.309v-13.557zm0.55469 0.55273h46.201v12.449h-46.201z" color="#000000" style="-inkscape-stroke:none"/>
</g>
<g transform="matrix(-.70711 -.70711 -.70711 .70711 0 0)">
<path d="m-75.329 5.958h46.756v13.003h-46.756z" color="#000000" stroke-width=".55329" style="-inkscape-stroke:none"/>
<path d="m-75.605 5.6816v13.557h47.309v-13.557zm0.55274 0.55273h46.203v12.449h-46.203z" color="#000000" style="-inkscape-stroke:none"/>
</g>
</g>
</g>
</svg>
