<?xml version="1.0" encoding="UTF-8"?>
<svg width="256" height="256" version="1.1" viewBox="0 0 67.733 67.733" xmlns="http://www.w3.org/2000/svg">
<g transform="matrix(1.0485 0 0 1.0485 -2.4202 -2.3002)">
<path d="m5.9336 12.865c-1.767 0-3.2676 1.5006-3.2676 3.2676v42.764c0 1.767 1.5006 3.2676 3.2676 3.2676h57.352c1.767 0 3.2676-1.5006 3.2676-3.2676v-42.764c0-1.767-1.5006-3.2676-3.2676-3.2676zm1.7324 5h53.887v39.299h-53.887z" color="#000000" fill="#fff" fill-opacity=".99883" style="-inkscape-stroke:none"/>
<path d="m5.9338 8.1283h19.959c0.42527 0 0.76763 0.34236 0.76763 0.76763v5.7009c0 0.42527-0.34236 0.76763-0.76763 0.76763h-19.959c-0.42527 0-0.76763-0.34236-0.76763-0.76763v-5.7009c0-0.42527 0.34236-0.76763 0.76763-0.76763z" color="#000000" fill="#fff" stroke-width="5" style="-inkscape-stroke:none"/>
<path d="m5.9336 5.6289c-1.767 0-3.2676 1.5006-3.2676 3.2676v5.7012c0 1.767 1.5006 3.2676 3.2676 3.2676h19.959c1.767 0 3.2676-1.5006 3.2676-3.2676v-5.7012c0-1.767-1.5006-3.2676-3.2676-3.2676zm1.7324 5h16.494v2.2363h-16.494z" color="#000000" fill="#fffdff" fill-opacity=".99163" style="-inkscape-stroke:none"/>
<g fill="#fff">
<path d="m5.1662 14.315h7.2638v1.0499h-7.2638z" color="#000000" stroke-width="5" style="-inkscape-stroke:none"/>
<path d="m2.666 11.814v6.0508h12.264v-6.0508z" color="#000000" fill-opacity=".99163" style="-inkscape-stroke:none"/>
</g>
</g>
</svg>
