<?xml version="1.0" encoding="UTF-8"?>
<svg width="256" height="256" version="1.1" viewBox="0 0 67.733 67.733" xmlns="http://www.w3.org/2000/svg">
<path transform="rotate(90)" d="m1.7906-33.921c-6.393e-4 1.131 0.056485 2.2623 0.17053 3.3879 0.30253 2.9879 1.0148 5.9292 2.1187 8.7266 1.2745 3.2331 3.0594 6.2494 5.2736 8.9214l7.3851-6.119c-1.5673-1.8914-2.8395-4.0391-3.7383-6.32v-0.002067-0.002067c-0.77784-1.971-1.2842-4.058-1.4981-6.1702v-0.00155c-0.25997-2.5659-0.1008-5.1801 0.47646-7.6781v-0.001551c0.49037-2.1269 1.2886-4.1947 2.3554-6.102 0.6156-1.1007 1.3201-2.15 2.1017-3.1326l-7.5039-5.9686c-1.1081 1.3932-2.1006 2.8733-2.9667 4.422-1.5106 2.7006-2.6342 5.6088-3.33 8.6269-0.5628 2.4361-0.84299 4.9248-0.84439 7.413zm15.448-27.903 5.1056 8.1173c1.6983-1.068 3.5418-1.9165 5.457-2.512l0.002067-0.002067c1.9506-0.60726 3.9932-0.95362 6.043-1.0309h0.00155c2.1773-0.083049 4.3667 0.13279 6.4689 0.64647l0.002067 0.002067h0.002067c2.1181 0.5163 4.1719 1.3385 6.0642 2.4272 1.8637 1.0713 3.586 2.4093 5.0901 3.9496 1e-3 1e-3 0.002618 9.95e-4 0.003618 0.002067l0.060978 0.064079 6.9004-6.658-0.089917-0.094051-0.009819-0.009819c-2.1217-2.1735-4.5374-4.0505-7.1737-5.5661h-0.002067c-2.6773-1.5402-5.5667-2.6993-8.5705-3.4318h-0.003618c-2.9831-0.72857-6.0529-1.0304-9.1059-0.91416h-0.002067c-2.889 0.10914-5.7604 0.59734-8.5292 1.4593-2.7135 0.84374-5.3097 2.0381-7.7148 3.5507zm0.57412 56.209c1.4353 0.86285 2.9347 1.613 4.4788 2.2443 2.7787 1.1362 5.7059 1.8829 8.6853 2.2226 3.6005 0.41057 7.262 0.23461 10.816-0.5395 3.0291-0.65859 5.9543-1.7471 8.676-3.2262l0.002067-0.0020671c3.1449-1.7078 5.9962-3.9225 8.4295-6.5412l-7.0254-6.5272c-1.724 1.8554-3.7595 3.4359-5.9821 4.6426v0.002067h-0.002067c-1.922 1.0447-3.9995 1.8188-6.135 2.2831h-0.002067c-2.5083 0.54645-5.1275 0.67316-7.691 0.38086-2.1051-0.24004-4.1825-0.77128-6.1407-1.572h-0.002067c-1.0966-0.4483-2.1565-0.97893-3.1662-1.586l-4.9413 8.2186zm38.207-37.998c0.73143 1.5939 1.2804 3.2794 1.633 5.0023 0.31632 1.5448 0.47512 3.1292 0.47491 4.7144l4.7945 0.002067h-4.7945c6.25e-4 2.0676-0.27112 4.1366-0.80874 6.1211-0.29244 1.0799-0.66233 2.1383-1.1054 3.1585l8.7969 3.8184c0.63093-1.4528 1.152-2.9466 1.5642-4.469 0.76318-2.8171 1.1433-5.7224 1.1426-8.6289v-0.002067c1.75e-4 -2.2236-0.22206-4.4499-0.66973-6.6368v-0.00155c-0.49856-2.4356-1.2735-4.814-2.3125-7.0781l-8.7152 3.9998z" color="#000000" fill="#fff" stroke-dasharray="38.355, 9.58874" stroke-dashoffset="26.848" style="-inkscape-stroke:none"/>
</svg>
