<?xml version="1.0" encoding="UTF-8"?>
<svg width="256" height="256" version="1.1" viewBox="0 0 67.733 67.733" xmlns="http://www.w3.org/2000/svg">
<g transform="matrix(.7366 .7366 -.7366 .7366 31.959 -17.933)" fill="#fff">
<path d="m24.322 10.396c-12.915 0-23.471 10.556-23.471 23.471 0 12.915 10.556 23.471 23.471 23.471 12.915 0 23.473-10.556 23.473-23.471 0-12.915-10.558-23.471-23.473-23.471zm0 8.1348c8.5179 0 15.336 6.818 15.336 15.336 0 8.5179-6.818 15.336-15.336 15.336-8.5179 0-15.336-6.818-15.336-15.336 0-8.5179 6.818-15.336 15.336-15.336z" color="#000000" style="-inkscape-stroke:none"/>
<rect x="39.962" y="29.574" width="40" height="8.586" ry="4.293" stroke-width="0"/>
</g>
</svg>
